<svg width="16" height="16" viewBox="0 0 16 17" fill="#D9D9D9" xmlns="http://www.w3.org/2000/svg">
<path d="M2 0.5H14C14.8284 0.5 15.5 1.17157 15.5 2C15.5 2.82843 14.8284 3.5 14 3.5H2C1.17157 3.5 0.5 2.82843 0.5 2C0.5 1.17157 1.17157 0.5 2 0.5ZM2 7H14C14.8284 7 15.5 7.67157 15.5 8.5C15.5 9.32843 14.8284 10 14 10H2C1.17157 10 0.5 9.32843 0.5 8.5C0.5 7.67157 1.17157 7 2 7ZM2 13H14C14.8284 13 15.5 13.6716 15.5 14.5C15.5 15.3284 14.8284 16 14 16H2C1.17157 16 0.5 15.3284 0.5 14.5C0.5 13.6716 1.17157 13 2 13Z" fill="#fff" stroke="#B5C8C7"/>
</svg>
