<svg width="14" height="15" viewBox="0 0 14 15" fill="none" xmlns="http://www.w3.org/2000/svg">
<path d="M10.3333 5.33333L6.71047 9.25811C6.57847 9.40111 6.51247 9.47261 6.43633 9.4994C6.3694 9.52302 6.29727 9.52302 6.23033 9.4994C6.1542 9.47261 6.0882 9.40111 5.9562 9.25811L4.71046 7.90856C4.57845 7.76556 4.51245 7.69406 4.43634 7.66727C4.36939 7.64365 4.29727 7.64365 4.23033 7.66727C4.15422 7.69406 4.08821 7.76556 3.95621 7.90856L1 11.1111M10.3333 5.33333H7.66667M10.3333 5.33333V8.22222M4.2 14H9.8C10.9201 14 11.4801 14 11.908 13.7638C12.2843 13.5561 12.5903 13.2247 12.782 12.817C13 12.3535 13 11.7468 13 10.5333V4.46667C13 3.25322 13 2.64649 12.782 2.18302C12.5903 1.77533 12.2843 1.44388 11.908 1.23615C11.4801 1 10.9201 1 9.8 1H4.2C3.07989 1 2.51984 1 2.09202 1.23615C1.71569 1.44388 1.40973 1.77533 1.21799 2.18302C1 2.64649 1 3.25322 1 4.46667V10.5333C1 11.7468 1 12.3535 1.21799 12.817C1.40973 13.2247 1.71569 13.5561 2.09202 13.7638C2.51984 14 3.07989 14 4.2 14Z" stroke="#f93800" stroke-width="2" stroke-linecap="round" stroke-linejoin="round"/>
</svg>
