<svg width="336" height="323" viewBox="0 0 336 323" fill="none" xmlns="http://www.w3.org/2000/svg">
<ellipse cx="130.5" cy="130" rx="130.5" ry="130" transform="matrix(-1 0 0 1 307 63)" fill="#E6E8EB"/>
<path d="M58 110C58 104.477 62.4772 100 68 100H281.057C286.557 100 291.025 104.443 291.056 109.943L291.941 265.683C291.973 271.328 287.33 275.881 281.686 275.737L174.5 273L68.0858 273.913C62.5296 273.961 58 269.47 58 263.914V110Z" fill="white" stroke="#2C3561"/>
<path d="M94 118.5C94 120.433 92.2091 122 90 122C87.7909 122 86 120.433 86 118.5C86 116.567 87.7909 115 90 115C92.2091 115 94 116.567 94 118.5Z" fill="#5D8783"/>
<path d="M104.5 118.709C104.5 120.918 102.709 122.709 100.5 122.709C98.2909 122.709 96.5 120.918 96.5 118.709C96.5 116.5 98.2909 114.709 100.5 114.709C102.709 114.709 104.5 116.5 104.5 118.709Z" fill="#AD68C7"/>
<circle cx="79" cy="119" r="4" fill="#E6E8EB"/>
<rect x="65.5" y="130.5" width="46" height="104" fill="#5D8783" stroke="#3C6F69"/>
<ellipse cx="78" cy="147.5" rx="7" ry="6.5" fill="#EFF3F3"/>
<rect x="72.5" y="199.5" width="19" height="3" rx="1.5" fill="#D9D9D9" stroke="#B5C8C7"/>
<rect x="72.5" y="191.5" width="34" height="3" rx="1.5" fill="#D9D9D9" stroke="#B5C8C7"/>
<rect x="72.5" y="183.5" width="34" height="3" rx="1.5" fill="#D9D9D9" stroke="#B5C8C7"/>
<rect x="72.5" y="175.5" width="34" height="3" rx="1.5" fill="#D9D9D9" stroke="#B5C8C7"/>
<rect x="71.5" y="167.5" width="34" height="3" rx="1.5" fill="#D9D9D9" stroke="#B5C8C7"/>
<rect x="72.5" y="159.5" width="34" height="3" rx="1.5" fill="#D9D9D9" stroke="#B5C8C7"/>
<circle cx="40.5" cy="228.5" r="40" fill="white" stroke="black"/>
<path d="M3 229.5C3 251.315 20.0132 269 41 269C61.9868 269 79 251.315 79 229.5C79 207.685 61.9868 190 41 190C20.0132 190 3 207.685 3 229.5Z" fill="#AD68C7"/>
<rect x="27" y="239" width="7" height="5" fill="#DDC2E8"/>
<rect x="38" y="235" width="7" height="9" fill="#DDC2E8"/>
<rect x="49" y="228" width="7" height="16" fill="#DDC2E8"/>
<path d="M142.5 283H210.506L215.389 290.75L220.273 298.5L233 313H117L123 307.5L136 298.5L142.5 283Z" fill="white"/>
<path d="M143.61 274.344L141.95 280.522L139.011 290.078L137 294.5L133.558 299.831L130 302.5L127 305" stroke="#4B5179"/>
<path d="M207.5 274L208.087 278.025L209 281.5L215.07 294.392L218.5 298.5L221.5 302L224.5 305.5L228.5 308.5L232.5 311.5" stroke="#707592"/>
<rect x="44" y="312" width="267" height="1" fill="#8185A1"/>
<ellipse cx="300.5" cy="96.5" rx="35.5" ry="34.5" fill="#1D2120"/>
<path d="M315.5 97.5C315.5 106.351 308.546 113.5 300 113.5C291.454 113.5 284.5 106.351 284.5 97.5C284.5 88.6488 291.454 81.5 300 81.5C308.546 81.5 315.5 88.6488 315.5 97.5Z" fill="#E9E9E9" stroke="black"/>
<path d="M319.492 95.2284C319.229 86.6672 312.219 79.7624 303.5 79.5073V79.5548V79.7371V79.9182V80.098V80.2766V80.4539V80.6299V80.8047V80.9783V81.1506V81.3216V81.4914V81.66V81.8274V81.9935V82.1584V82.3222V82.4846V82.6459V82.806V82.9649V83.1226V83.279V83.4344V83.5885V83.7414V83.8932V84.0438V84.1932V84.3414V84.4885V84.6345V84.7793V84.9229V85.0654V85.2068V85.347V85.4861V85.6241V85.7609V85.8966V86.0313V86.1648V86.2971V86.4284V86.5586V86.6877V86.8157V86.9426V87.0685V87.1932V87.3169V87.4395V87.561V87.6815V87.8009V87.9193V88.0366V88.1528V88.2681V88.3822V88.4954V88.6075V88.7186V88.8286V88.9377V89.0457V89.1527V89.2587V89.3637V89.4678V89.5708V89.6728V89.7738V89.8739V89.973V90.0711V90.1682V90.2644V90.3596V90.4538V90.5471V90.6394V90.7308V90.8213V90.9108V90.9993V91.087V91.1737V91.2595V91.2892V91.2893V91.2896V91.2897V91.2905V91.2907V91.2918V91.2921V91.2936V91.294V91.2958V91.2963V91.2984V91.2992V91.3015V91.3025V91.305V91.3062V91.309V91.3105V91.3133V91.3152V91.3181V91.3205V91.3233V91.3262V91.329V91.3324V91.335V91.3391V91.3415V91.3444V91.3463V91.3483V91.354V91.3556V91.3623V91.3633V91.371V91.3713V91.3798V91.3802V91.3886V91.39V91.3979V91.4003V91.4075V91.4111V91.4175V91.4224V91.4279V91.4283V91.4342V91.4387V91.4466V91.4499V91.4595V91.4614V91.473V91.4733V91.4855V91.487V91.4981V91.5015V91.5111V91.5114V91.5166V91.5244V91.5322V91.5381V91.5484V91.5522V91.5651V91.5665V91.5813V91.5824V91.5935V91.5963V91.6003V91.6117V91.6187V91.6275V91.6377V91.6435V91.6572V91.6599V91.6748V91.6767V91.6773V91.6937V91.698V91.7111V91.7193V91.7287V91.7412V91.7467V91.7551V91.7637V91.765V91.7836V91.7867V91.8026V91.8103V91.8218V91.8346V91.8413V91.8594V91.8611V91.8812V91.8848V91.9016V91.9108V91.9131V91.9222V91.9375V91.9432V91.9644V91.9647V91.986V91.9908V91.9926V92.0077V92.0211V92.0298V92.0502V92.0521V92.0676V92.0747V92.0799V92.0975V92.1102V92.1207V92.1412V92.1435V92.144V92.1676V92.1728V92.1915V92.205V92.2156V92.2185V92.2379V92.2399V92.2645V92.2714V92.2894V92.2927V92.3056V92.3144V92.3397V92.3404V92.3652V92.366V92.3759V92.391V92.412V92.4169V92.4384V92.4431V92.4487V92.4695V92.4862V92.4961V92.51V92.5229V92.5242V92.55V92.563V92.5772V92.5807V92.6024V92.6046V92.6322V92.6425V92.6506V92.66V92.6833V92.6881V92.7163V92.7196V92.7247V92.7446V92.7668V92.7732V92.7878V92.8019V92.8097V92.8308V92.8532V92.8552V92.8599V92.8892V92.8973V92.9186V92.9217V92.9422V92.9482V92.9779V92.9874V92.9878V93.0078V93.0341V93.0379V93.0522V93.0681V93.081V93.0985V93.1163V93.1287V93.129V93.1596V93.1771V93.1795V93.1904V93.2213V93.2262V93.2419V93.2523V93.276V93.2835V93.3035V93.3148V93.3266V93.3463V93.3643V93.3778V93.4095V93.4243V93.4298V93.4412V93.4731V93.4825V93.4835V93.4845V93.4847V93.4848V93.4852V93.4855V93.4861V93.4866V93.4874V93.488V93.4892V93.4898V93.4913V93.492V93.4939V93.4946V93.4969V93.4975V93.5003V93.5008V93.5042V93.5045V93.5051V93.5085V93.5085V93.5129V93.5132V93.5176V93.5184V93.5227V93.524V93.5281V93.5301V93.5338V93.5359V93.5366V93.5372V93.5399V93.5419V93.5436V93.5463V93.5511V93.553V93.559V93.5601V93.5674V93.5674V93.5694V93.5751V93.5763V93.5831V93.5857V93.5901V93.5913V93.5955V93.5995V93.5999V93.6017V93.6059V93.6088V93.6167V93.618V93.6274V93.628V93.6341V93.6372V93.6398V93.645V93.6472V93.6522V93.6563V93.6575V93.665V93.6666V93.668V93.6784V93.6789V93.69V93.6922V93.6992V93.7006V93.7013V93.7066V93.7123V93.7129V93.7215V93.7248V93.7319V93.7369V93.737V93.7492V93.7529V93.757V93.7618V93.7646V93.7676V93.7694V93.7747V93.7865V93.7877V93.7975V93.801V93.8041V93.8141V93.8145V93.8221V93.8222V93.8282V93.8304V93.8409V93.8422V93.8563V93.8602V93.8634V93.8707V93.872V93.8758V93.88V93.8853V93.8964V93.9V93.9004V93.915V93.9213V93.9288V93.9295V93.9301V93.9306V93.9429V93.9455V93.961V93.9627V93.965V93.9767V93.981V93.9876V93.99V93.9926V93.996V94.0086V94.0109V94.0248V94.0293V94.0324V94.0347V94.0412V94.0501V94.0577V94.0592V94.0627V94.0744V94.0831V94.0842V94.0912V94.0961V94.1082V94.1099V94.111V94.1253V94.1295V94.133V94.1361V94.1426V94.16V94.163V94.1631V94.1727V94.1775V94.1822V94.1905V94.1952V94.1966V94.213V94.2186V94.2302V94.2306V94.2309V94.2351V94.2473V94.2489V94.2638V94.267V94.2766V94.2783V94.2853V94.2975V94.2983V94.3036V94.3066V94.322V94.3253V94.3312V94.3372V94.3406V94.3592V94.3623V94.365V94.3684V94.3715V94.3779V94.3967V94.3987V94.4003V94.4155V94.4171V94.427V94.4325V94.4328V94.4345V94.4535V94.4618V94.466V94.4663V94.4726V94.4917V94.4925V94.4998V94.5001V94.5059V94.5109V94.5301V94.5339V94.5343V94.5493V94.5494V94.5588V94.5678V94.5688V94.5694V94.5882V94.5919V94.6016V94.6052V94.6076V94.6259V94.6271V94.6339V94.6355V94.6417V94.6466V94.6661V94.6693V94.6751V94.6789V94.6856V94.6938V94.7031V94.7052V94.7157V94.7167V94.7248V94.737V94.7444V94.7552V94.7555V94.7624V94.7639V94.7708V94.7835V94.7944V94.7947V94.8031V94.8046V94.8227V94.8319V94.8332V94.8343V94.8384V94.8423V94.8618V94.871V94.8722V94.8748V94.8814V94.9009V94.9022V94.906V94.9081V94.9161V94.9204V94.9397V94.9399V94.9446V94.9581V94.9593V94.9732V94.9735V94.9787V94.9803V94.998V95.0008V95.0072V95.0155V95.0173V95.0366V95.0408V95.0442V95.0451V95.0499V95.0558V95.0744V95.0749V95.0837V95.0883V95.094V95.108V95.113V95.1169V95.1177V95.132V95.1331V95.1416V95.1494V95.1509V95.1696V95.175V95.1787V95.1812V95.1883V95.1912V95.207V95.2085V95.2124V95.2249V95.2255V95.2284H303.529H303.58H303.63H303.68H303.729H303.778H303.827H303.875H303.923H303.97H304.017H304.064H304.11H304.156H304.201H304.246H304.291H304.335H304.379H304.423H304.466H304.509H304.551H304.593H304.635H304.677H304.718H304.758H304.799H304.839H304.878H304.917H304.956H304.995H305.033H305.071H305.109H305.146H305.183H305.219H305.255H305.291H305.327H305.362H305.397H305.432H305.466H305.5H305.533H305.567H305.6H305.633H305.665H305.697H305.729H305.76H305.792H305.822H305.853H305.883H305.913H305.943H305.973H306.002H306.031H306.059H306.087H306.116H306.143H306.171H306.198H306.225H306.252H306.278H306.304H306.33H306.356H306.381H306.406H306.431H306.456H306.48H306.504H306.528H306.552H306.575H306.598H306.621H306.644H306.667H306.689H306.711H306.733H306.754H306.776H306.797H306.818H306.838H306.859H306.879H306.899H306.919H306.939H306.958H306.977H306.996H307.015H307.034H307.052H307.07H307.089H307.106H307.124H307.142H307.159H307.176H307.193H307.21H307.227H307.243H307.259H307.275H307.291H307.307H307.323H307.338H307.354H307.369H307.384H307.399H307.413H307.428H307.442H307.457H307.471H307.485H307.498H307.512H307.526H307.539H307.553H307.566H307.579H307.592H307.605H307.617H307.63H307.642H307.655H307.667H307.679H307.691H307.703H307.715H307.727H307.738H307.75H307.761H307.773H307.784H307.795H307.806H307.817H307.828H307.839H307.85H307.86H307.871H307.881H307.892H307.902H307.913H307.923H307.933H307.943H307.953H307.963H307.973H307.983H307.993H308.003H308.013H308.022H308.032H308.042H308.051H308.061H308.071H308.08H308.089H308.099H308.108H308.118H308.127H308.137H308.146H308.155H308.164H308.174H308.183H308.192H308.202H308.211H308.22H308.229H308.239H308.248H308.257H308.267H308.276H308.285H308.295H308.304H308.313H308.323H308.332H308.341H308.351H308.36H308.37H308.379H308.389H308.399H308.408H308.418H308.428H308.438H308.447H308.457H308.467H308.477H308.487H308.497H308.507H308.518H308.528H308.538H308.549H308.559H308.57H308.58H308.591H308.602H308.613H308.624H308.635H308.646H308.657H308.668H308.68H308.691H308.703H308.714H308.726H308.738H308.75H308.762H308.774H308.786H308.799H308.811H308.824H308.837H308.85H308.863H308.876H308.889H308.902H308.916H308.929H308.943H308.957H308.971H308.985H309H309.014H309.029H309.043H309.058H309.073H309.088H309.104H309.119H309.135H309.151H309.167H309.183H309.199H309.216H309.233H309.249H309.266H309.284H309.301H309.319H309.336H309.354H309.372H309.391H309.409H309.428H309.447H309.466H309.485H309.505H309.524H309.544H309.564H309.585H309.605H309.626H309.647H309.668H309.69H309.711H309.733H309.755H309.777H309.8H309.823H309.846H309.869H309.892H309.916H309.94H309.964H309.989H310.013H310.038H310.064H310.089H310.115H310.141H310.167H310.194H310.22H310.247H310.275H310.302H310.33H310.358H310.387H310.415H310.444H310.473H310.503H310.533H310.563H310.593H310.624H310.655H310.686H310.718H310.75H310.782H310.814H310.847H310.88H310.914H310.947H310.981H311.016H311.05H311.085H311.121H311.156H311.192H311.229H311.265H311.302H311.34H311.377H311.415H311.454H311.492H311.531H311.571H311.61H311.65H311.691H311.732H311.773H311.814H311.856H311.898H311.941H311.984H312.027H312.071H312.115H312.159H312.204H312.249H312.295H312.341H312.387H312.434H312.481H312.528H312.576H312.625H312.673H312.723H312.772H312.822H312.872H312.923H312.974H313.026H313.078H313.13H313.183H313.236H313.29H313.344H313.398H313.453H313.508H313.564H313.62H313.677H313.734H313.792H313.85H313.908H313.967H314.026H314.086H314.146H314.207H314.268H314.33H314.392H314.454H314.517H314.581H314.645H314.709H314.774H314.839H314.905H314.971H315.038H315.105H315.173H315.241H315.31H315.379H315.449H315.519H315.59H315.661H315.732H315.805H315.877H315.951H316.024H316.098H316.173H316.248H316.324H316.4H316.477H316.555H316.632H316.711H316.79H316.869H316.949H317.03H317.111H317.192H317.274H317.357H317.44H317.524H317.608H317.693H317.779H317.865H317.951H318.038H318.126H318.214H318.303H318.392H318.482H318.573H318.664H318.755H318.848H318.94H319.034H319.128H319.222H319.317H319.413H319.492Z" fill="#E9E9E9" stroke="black"/>
<circle cx="175.5" cy="257.5" r="6" fill="white" stroke="black"/>
<rect x="77" y="241" width="129" height="1" fill="#6A6E8F"/>
<rect x="211" y="241" width="3" height="1" fill="#6A6E8F"/>
<rect x="126" y="146" width="19" height="4" rx="2" fill="#E5E5E5"/>
<rect x="126" y="156" width="32" height="4" rx="2" fill="#E5E5E5"/>
<path d="M66 130H282V131H66V130Z" fill="#3C6F69"/>
<rect x="245" y="175" width="12" height="44" fill="#EFF0F2"/>
<rect x="245" y="197" width="12" height="21" fill="#5C8682"/>
<rect x="215" y="156" width="13" height="63" fill="#EFF0F2"/>
<rect x="215" y="199" width="13" height="20" fill="#5C8682"/>
<rect x="185" y="189" width="13" height="31" fill="#EFF0F2"/>
<rect x="185" y="210.815" width="13" height="9.18519" fill="#5C8682"/>
<rect x="157" y="177" width="13" height="42" fill="#EFF0F2"/>
<rect x="157" y="209" width="13" height="10" fill="#5C8682"/>
<rect x="127" y="189" width="13" height="30" fill="#EFF0F2"/>
<rect x="127" y="211.857" width="13" height="7.14286" fill="#5C8682"/>
<path d="M250.492 170.54C250.475 170.673 250.351 170.701 250.241 170.707C250.121 170.714 250.17 170.899 250.093 170.976C249.999 171.07 249.833 171.033 249.824 171.208C249.814 171.379 249.742 171.514 249.657 171.663C249.399 172.114 248.895 172.541 248.45 172.795C248.078 173.008 247.728 173.692 247.55 174.048C247.252 174.644 246.765 175.149 246.297 175.616C245.915 175.999 245.535 176.289 245.272 176.763C245.025 177.206 244.405 177.313 244.144 177.77C244.015 177.996 243.729 178.268 243.541 178.456C243.391 178.606 243.185 178.961 243.012 179.06C242.613 179.288 242.391 180.008 241.926 180.141C241.433 180.281 241.039 180.782 240.738 181.083C240.361 181.46 239.791 181.942 239.3 182.215C238.762 182.513 238.385 182.973 237.838 183.278C237.718 183.344 237.618 183.54 237.504 183.565C237.336 183.602 237.207 183.638 237.063 183.755C236.951 183.847 236.722 183.877 236.645 183.987C236.576 184.089 236.375 184.289 236.251 184.317C235.863 184.403 235.368 184.742 234.998 184.906C234.789 184.999 234.21 185.225 234.103 185.407C233.961 185.648 233.605 185.593 233.453 185.783C233.233 186.058 232.554 186.314 232.219 186.326C231.521 186.352 231.124 186.878 230.53 187.143C230.303 187.244 230.156 187.515 229.899 187.663C229.51 187.884 229.027 187.846 228.646 188.015C228.474 188.091 228.309 188.045 228.126 188.099C227.843 188.183 227.645 188.399 227.356 188.479C226.923 188.599 226.782 188.91 226.395 189.082C225.99 189.262 225.576 189.463 225.184 189.649C224.81 189.826 224.39 189.746 223.973 189.839C223.798 189.878 223.682 190.037 223.514 190.085C223.209 190.172 222.921 190.246 222.632 190.377C222.162 190.591 221.621 190.487 221.175 190.734C220.345 191.196 219.47 191.338 218.502 191.338C218.196 191.338 217.945 191.384 217.667 191.523C217.341 191.686 216.915 191.922 216.539 191.922C216.104 191.922 215.614 192.398 215.161 192.423C214.653 192.452 214.185 192.674 213.662 192.674C212.751 192.674 211.875 193.008 210.953 193.008C210.524 193.008 210.129 193.159 209.714 193.175C209.495 193.183 209.29 193.337 209.045 193.342C208.773 193.348 208.501 193.342 208.229 193.342C207.491 193.342 206.725 193.324 206.057 193.658C205.374 193.999 204.644 194.01 203.885 194.01C202.438 194.01 201.014 194.094 199.584 194.094C199.254 194.094 199.118 194.193 198.832 194.256C198.452 194.341 198.101 194.344 197.705 194.344C196.897 194.344 196.09 194.344 195.283 194.344C194.744 194.344 193.941 194.201 193.445 194.409C193.175 194.523 192.872 194.511 192.568 194.511C192.178 194.511 192.12 194.631 191.858 194.762" stroke="#A85FC4" stroke-width="3" stroke-linecap="round"/>
<path d="M191.273 195.013C190.55 195.013 189.796 194.716 189.097 194.6C188.77 194.545 188.295 194.523 187.997 194.511C187.566 194.494 187.153 194.344 186.721 194.344C185.836 194.344 184.82 194.261 183.886 194.261C182.783 194.261 181.68 194.057 180.578 194.219C179.535 194.372 178.559 194.428 177.492 194.428C176.378 194.428 175.265 194.428 174.151 194.428C173.596 194.428 173.04 194.428 172.485 194.428C172.144 194.428 171.45 194.426 171.126 194.326C170.542 194.146 169.954 194.094 169.344 194.094C168.75 194.094 168.218 193.927 167.636 193.927" stroke="#A85FC4" stroke-width="3" stroke-linecap="round"/>
<path d="M166.997 194.043C166.565 194.043 166.276 193.907 165.836 193.907C165.321 193.907 165.328 193.526 164.812 193.497C163.58 193.429 162.468 193.572 161.322 193.899C159.951 194.291 158.116 194.043 156.709 194.043C156.318 194.043 156.018 194.18 155.654 194.18C155.241 194.18 154.865 194.043 154.44 194.043C153.866 194.043 153.573 193.805 153.06 193.634C152.511 193.451 151.756 193.382 151.186 193.36C150.656 193.34 150.185 193.224 149.645 193.224C148.628 193.224 147.629 193.196 146.649 193.087C145.379 192.946 144.072 192.951 142.764 192.951C141.986 192.951 140.432 192.673 139.851 193.254C139.252 193.853 138.56 193.936 137.772 194.286C137.177 194.551 136.591 194.889 135.996 195.143C135.654 195.29 135.486 195.544 135.23 195.743C135.013 195.912 134.675 195.771 134.426 195.826C134.034 195.913 133.719 196.409 133.402 196.608C133.02 196.846 132.653 197.038 132.339 197.351C132.115 197.575 131.457 198.003 131.148 198.14C130.706 198.337 130.379 198.826 130.048 199.157C129.927 199.278 129.69 199.351 129.608 199.506C129.441 199.821 129.404 199.604 129.198 199.809C129.009 199.999 128.828 200.637 128.682 200.864C128.423 201.267 128.086 201.412 127.878 201.828C127.699 202.185 127.429 202.757 127.119 202.95C126.619 203.263 126.471 203.983 126.027 204.316C125.726 204.542 125.562 205.131 125.488 205.462C125.444 205.662 125.399 205.962 125.268 206.129C125.079 206.372 125.171 206.686 125.003 206.888C124.768 207.17 124.797 207.701 124.555 208.003C124.31 208.31 124.388 208.816 124.388 209.202" stroke="#A85FC4" stroke-width="3" stroke-linecap="round"/>
<path d="M123.842 208.793C123.842 208.657 123.834 208.518 123.842 208.383C123.854 208.179 124.064 208.321 124.107 208.17C124.195 207.864 124.07 207.593 124.221 207.29C124.384 206.964 124.94 206.405 125.177 206.167C125.559 205.785 125.646 205.213 126.027 204.832C126.322 204.537 126.517 204.008 126.816 203.709C127.105 203.42 127.626 201.983 127.939 201.964C128.287 201.944 128.728 201.251 129.001 200.978C129.322 200.657 129.608 200.316 129.82 199.916C129.904 199.758 129.994 199.849 130.094 199.749C130.185 199.657 130.098 199.425 130.131 199.309C130.178 199.148 130.633 199.122 130.67 198.823C130.683 198.723 131.485 198.188 131.656 198.034C132.001 197.724 132.247 197.234 132.612 196.942C133.39 196.319 134.511 196.21 135.283 195.515C135.636 195.198 136.261 194.917 136.679 194.696C137.031 194.51 137.529 194.066 137.908 194.043C138.319 194.019 139.016 193.703 139.41 193.527C139.652 193.42 140.026 193.428 140.291 193.353C140.535 193.283 140.761 193.007 140.981 192.958C141.609 192.819 142.116 192.305 142.749 192.124C143.197 191.996 143.722 191.821 144.19 191.653C144.981 191.371 146.03 191.624 146.853 191.441C147.475 191.303 147.964 191.175 148.621 191.175C151.112 191.175 153.523 191.039 156.003 191.039C158.735 191.039 161.466 191.039 164.197 191.039C165.381 191.039 166.565 191.039 167.748 191.039C168.439 191.039 169.067 190.629 169.797 190.629C170.537 190.629 171.229 190.493 171.944 190.493C173.424 190.493 174.906 190.629 176.42 190.629C177.728 190.629 179.012 190.428 180.244 190.356C181.473 190.284 182.773 189.81 184.068 189.81C185.429 189.81 186.745 189.4 188.028 189.4C189.469 189.4 190.961 189.127 192.368 189.127C192.977 189.127 193.832 188.964 194.386 188.687C194.858 188.451 195.751 188.63 196.116 188.338C196.303 188.189 196.741 188.364 196.966 188.3C197.144 188.249 197.394 188.015 197.588 187.928C198.168 187.67 198.88 187.78 199.5 187.488C199.873 187.312 200.301 187.28 200.653 187.078C201.003 186.878 201.12 186.669 201.549 186.669C202.245 186.669 202.776 186.122 203.392 186.122C203.733 186.122 204.127 185.913 204.492 185.819C204.692 185.768 204.775 185.584 204.993 185.576C205.31 185.564 205.609 185.594 205.919 185.508C206.718 185.286 207.548 184.893 208.377 184.893C209.086 184.893 210.152 184.445 210.828 184.15C211.594 183.814 212.303 183.469 213.081 183.247C213.263 183.195 213.758 182.979 213.9 182.845C214.182 182.579 214.762 182.715 214.932 182.503C215.036 182.374 215.562 182.353 215.752 182.268C216.054 182.134 216.511 182.081 216.844 182.033C217.652 181.918 218.179 181.062 219.029 180.94C219.434 180.883 219.583 180.789 219.849 180.523C220.106 180.265 220.458 180.46 220.736 180.182C221.49 179.428 222.549 179.432 223.331 178.824C223.918 178.367 224.895 178.065 225.653 178.065C225.868 178.065 226.343 177.866 226.54 177.761C226.669 177.693 226.653 177.528 226.814 177.519C226.98 177.509 227.15 177.553 227.291 177.443C227.435 177.331 227.454 177.167 227.572 177.048C227.693 176.928 227.925 176.96 228.073 176.866C228.258 176.748 228.829 176.551 229.082 176.434C229.555 176.215 229.596 176.214 229.924 175.849C230.234 175.505 230.67 175.159 231.047 174.863C231.554 174.465 232.5 173.831 233.164 173.831C234.267 173.831 234.872 172.193 235.827 172.193" stroke="#5C8683" stroke-width="3" stroke-linecap="round"/>
<path d="M235.69 172.329C235.741 171.925 236.422 171.722 236.646 171.441C236.881 171.149 237.117 170.918 237.405 170.63C238.01 170.025 238.803 169.634 239.484 169.021C240.145 168.427 240.912 167.682 241.623 167.276C241.912 167.111 242.308 166.509 242.45 166.252C242.625 165.938 243.22 165.71 243.338 165.357C243.593 164.593 244.343 163.796 244.871 163.209C245.208 162.835 245.618 162.549 245.933 162.155C246.22 161.796 246.876 161.586 247.025 161.138C247.159 160.738 248.369 159.848 248.649 159.568C248.734 159.483 249.205 159.174 249.211 159.082C249.233 158.706 249.498 158.582 249.757 158.323C250.106 157.975 250.124 157.312 250.47 156.927C250.674 156.7 250.986 156.115 250.986 155.804" stroke="#5C8683" stroke-width="3" stroke-linecap="round"/>
<rect x="46" y="215" width="8" height="3" fill="#FEFEFF"/>
<rect x="51" y="215" width="3" height="8" fill="white"/>
<path d="M25 232.765L28.2126 232.547L31.7731 231.633L36.5 228.955L38.2964 227.666L43 224L45.1339 222.395L51.5 217.5L51 215.955" stroke="white" stroke-width="4"/>
<path d="M235.863 10.5409L198.795 33.0267L182.254 7.90438L235.863 10.5409Z" fill="#487773"/>
<path d="M187.664 17.4628L230.898 11.0734H236.355L212.747 15.333L188.156 18.5277L187.664 17.4628Z" fill="#264B47"/>
<path d="M187.765 30.159L188.085 17L194.771 26.5805L187.765 30.159Z" fill="#264B47"/>
<path d="M152.931 96.8171C152.241 96.7404 151.787 95.3648 151.222 95.0423C150.743 94.7685 150.357 94.0487 149.98 93.5781C149.868 93.4374 150.019 93.195 149.891 93.0679C149.749 92.9252 149.624 93.0351 149.492 92.8238C149.28 92.4849 149.044 92.3488 148.926 91.9365C148.894 91.8223 148.228 91.0049 148.094 90.8716C147.788 90.5656 147.558 90.2243 147.251 89.9177C146.013 88.679 145.341 87.1393 144.589 85.636C144.213 84.8837 143.543 83.9624 143.347 83.1292C143.198 82.4955 142.813 81.6314 142.504 81.0438C142.294 80.645 141.75 80.1905 141.75 79.746C141.75 79.5584 140.946 77.7553 140.796 77.6052C140.325 77.1349 139.79 75.7273 139.753 75.0539C139.701 74.1175 139.764 73.2548 139.564 72.3585C139.375 71.5046 139.154 70.6541 139.154 69.7629C139.154 68.0958 138.954 66.4162 138.954 64.6715C138.954 63.8026 138.755 63.0104 138.755 62.1758C138.755 61.6147 138.59 59.8518 139.054 59.4803C139.307 59.278 139.129 58.7413 139.454 58.482C139.601 58.3644 139.553 58.1533 139.553 57.9829C139.553 57.6042 139.722 57.8255 139.908 57.639C139.979 57.5687 140.145 56.6105 140.152 56.4854C140.179 55.999 140.431 55.7848 140.651 55.3873C141.352 54.1262 141.823 51.4409 143.147 50.7396C143.424 50.593 143.263 50.4279 143.391 50.185C143.489 50.0005 143.76 50.165 143.902 50.0518C144.246 49.776 144.179 49.5047 144.645 49.2976C145.346 48.9858 145.643 47.7293 146.053 47.2011C147.583 45.2341 150.593 44.5629 152.731 43.6627C155.735 42.3977 159.375 43.2521 161.671 45.5484C161.923 45.7999 162.251 45.8735 162.47 46.1473C162.676 46.4049 162.568 46.8708 162.825 47.2011C163.425 47.972 163.313 48.8322 163.313 49.7967C163.313 50.8345 163.823 53.9937 163.158 54.7328C162.544 55.4147 162.056 56.1447 161.416 56.7849C161.282 56.9197 160.727 57.6378 160.607 57.6723C160.138 57.8062 159.66 57.8764 159.209 58.1271C158.697 58.4113 158.624 58.4567 157.967 58.482C157.43 58.5027 157.229 58.98 156.824 59.0699C155.879 59.28 154.911 59.2807 153.929 59.2807C152.177 59.2807 150.836 58.1463 149.181 58.0827C148.722 58.065 146.983 57.7965 146.741 57.3728C146.31 56.6189 145.276 56.1568 144.944 55.4094C144.83 55.1527 144.484 55.0204 144.345 54.7772C143.929 54.0483 142.592 52.93 142.548 52.0928C142.496 51.1057 141.803 50.457 141.75 49.4972C141.739 49.3055 141.308 48.7525 141.195 48.4989C141.013 48.0888 140.951 47.6503 140.951 47.2011C140.951 46.4561 140.751 45.6386 140.751 44.8052C140.751 43.1922 139.344 42.1225 140.197 40.5124C140.392 40.1432 140.644 39.9609 140.907 39.6694C141.181 39.365 141.06 38.8277 141.45 38.5158C141.631 38.3707 141.736 37.5625 141.75 37.3179C141.775 36.8659 142.245 36.5866 142.448 36.2197C142.764 35.6514 143.623 35.2087 144.101 34.6779C144.597 34.1271 144.733 33.0344 145.244 32.6369C146.498 31.661 148.072 31.1729 149.181 30.1744C150.312 29.1572 152.061 28.0715 153.629 27.723C154.806 27.4615 155.956 27.0005 157.124 26.6914C157.986 26.4631 158.811 25.9371 159.719 25.9371C160.579 25.9371 161.389 25.3381 162.215 25.3381C163.102 25.3381 164.372 25.0839 165.31 24.9499C166.339 24.8029 167.515 24.5224 168.593 24.2955C169.786 24.0443 171.294 23.5412 172.498 23.5412C173.429 23.5412 173.97 23.3629 174.783 23.1308C175.573 22.9048 176.561 23.1646 177.378 22.9311C178.711 22.5503 180.672 22.5429 182.081 22.5429" stroke="#264B47" stroke-linecap="round"/>
</svg>
